<mxfile host="65bd71144e">
    <diagram id="86Lg9AEgQKn1O1yFlzZm" name="Page-1">
        <mxGraphModel dx="2073" dy="862" grid="1" gridSize="10" guides="1" tooltips="1" connect="1" arrows="1" fold="1" page="1" pageScale="1" pageWidth="1169" pageHeight="1654" math="0" shadow="0">
            <root>
                <mxCell id="0"/>
                <mxCell id="1" parent="0"/>
                <mxCell id="2" value="personal_assistant&#10;" style="swimlane;startSize=140;fontSize=70;flipH=1;align=center;verticalAlign=middle;labelPosition=center;verticalLabelPosition=middle;strokeWidth=7;" vertex="1" parent="1">
                    <mxGeometry x="-1030" y="60" width="2090" height="1510" as="geometry"/>
                </mxCell>
                <mxCell id="27" value="address_book_app" style="swimlane;fontSize=40;startSize=50;strokeWidth=5;" vertex="1" parent="1">
                    <mxGeometry x="-920" y="260" width="840" height="350" as="geometry"/>
                </mxCell>
                <mxCell id="49" value="&lt;font style=&quot;font-size: 22px&quot;&gt;address_book&lt;br&gt;_client&lt;/font&gt;" style="rounded=0;whiteSpace=wrap;html=1;fontSize=30;strokeWidth=5;" vertex="1" parent="27">
                    <mxGeometry x="60" y="80" width="150" height="90" as="geometry"/>
                </mxCell>
                <mxCell id="50" value="&lt;font style=&quot;font-size: 22px&quot;&gt;address_book&lt;br&gt;_service&lt;/font&gt;" style="rounded=0;whiteSpace=wrap;html=1;fontSize=30;strokeWidth=5;" vertex="1" parent="27">
                    <mxGeometry x="320" y="80" width="160" height="90" as="geometry"/>
                </mxCell>
                <mxCell id="51" value="&lt;font style=&quot;font-size: 22px&quot;&gt;&lt;font style=&quot;font-size: 22px&quot;&gt;add&lt;/font&gt;ress_book&lt;/font&gt;" style="rounded=0;whiteSpace=wrap;html=1;fontSize=30;strokeWidth=5;" vertex="1" parent="27">
                    <mxGeometry x="580" y="80" width="160" height="90" as="geometry"/>
                </mxCell>
                <mxCell id="52" value="fields" style="rounded=0;whiteSpace=wrap;html=1;fontSize=30;strokeWidth=5;" vertex="1" parent="27">
                    <mxGeometry x="170" y="220" width="150" height="90" as="geometry"/>
                </mxCell>
                <mxCell id="53" value="record" style="rounded=0;whiteSpace=wrap;html=1;fontSize=30;strokeWidth=5;" vertex="1" parent="27">
                    <mxGeometry x="480" y="220" width="150" height="90" as="geometry"/>
                </mxCell>
                <mxCell id="29" value="cleaner" style="swimlane;fontSize=40;strokeWidth=5;startSize=50;" vertex="1" parent="1">
                    <mxGeometry x="70" y="260" width="910" height="350" as="geometry"/>
                </mxCell>
                <mxCell id="58" value="&lt;font style=&quot;font-size: 31px&quot;&gt;cleaner_client&lt;/font&gt;" style="rounded=0;whiteSpace=wrap;html=1;fontSize=22;strokeWidth=5;" vertex="1" parent="29">
                    <mxGeometry x="70" y="80" width="230" height="100" as="geometry"/>
                </mxCell>
                <mxCell id="57" value="&lt;font style=&quot;font-size: 31px&quot;&gt;logger&lt;/font&gt;" style="rounded=0;whiteSpace=wrap;html=1;fontSize=22;strokeWidth=5;" vertex="1" parent="29">
                    <mxGeometry x="150" y="220" width="230" height="100" as="geometry"/>
                </mxCell>
                <mxCell id="56" value="&lt;font style=&quot;font-size: 31px&quot;&gt;normalizer&lt;/font&gt;" style="rounded=0;whiteSpace=wrap;html=1;fontSize=22;strokeWidth=5;" vertex="1" parent="29">
                    <mxGeometry x="500" y="220" width="210" height="100" as="geometry"/>
                </mxCell>
                <mxCell id="55" value="&lt;font style=&quot;font-size: 31px&quot;&gt;folder_cleaner&lt;/font&gt;" style="rounded=0;whiteSpace=wrap;html=1;fontSize=22;strokeWidth=5;" vertex="1" parent="29">
                    <mxGeometry x="650" y="80" width="210" height="100" as="geometry"/>
                </mxCell>
                <mxCell id="54" value="&lt;font style=&quot;font-size: 31px&quot;&gt;file_types&lt;/font&gt;" style="rounded=0;whiteSpace=wrap;html=1;fontSize=22;strokeWidth=5;" vertex="1" parent="29">
                    <mxGeometry x="350" y="80" width="230" height="100" as="geometry"/>
                </mxCell>
                <mxCell id="30" value="&#10;notebook_app&#10;" style="swimlane;fontSize=40;strokeWidth=5;startSize=60;verticalAlign=middle;labelPosition=center;verticalLabelPosition=middle;align=center;" vertex="1" parent="1">
                    <mxGeometry x="-920" y="730" width="830" height="420" as="geometry"/>
                </mxCell>
                <mxCell id="63" value="notebook_service" style="rounded=0;whiteSpace=wrap;html=1;fontSize=31;strokeWidth=5;" vertex="1" parent="30">
                    <mxGeometry x="75" y="280" width="285" height="120" as="geometry"/>
                </mxCell>
                <mxCell id="62" value="notebook_client" style="rounded=0;whiteSpace=wrap;html=1;fontSize=31;strokeWidth=5;" vertex="1" parent="30">
                    <mxGeometry x="490" y="110" width="270" height="120" as="geometry"/>
                </mxCell>
                <mxCell id="61" value="notebook" style="rounded=0;whiteSpace=wrap;html=1;fontSize=31;strokeWidth=5;" vertex="1" parent="30">
                    <mxGeometry x="490" y="280" width="270" height="120" as="geometry"/>
                </mxCell>
                <mxCell id="31" value="&#10;shared&#10;" style="swimlane;fontSize=40;strokeWidth=5;startSize=60;" vertex="1" parent="1">
                    <mxGeometry x="80" y="730" width="900" height="420" as="geometry"/>
                </mxCell>
                <mxCell id="64" value="&lt;font style=&quot;font-size: 26px&quot;&gt;assistant_&lt;br&gt;exeptions&lt;/font&gt;" style="rounded=0;whiteSpace=wrap;html=1;fontSize=31;strokeWidth=5;" vertex="1" parent="31">
                    <mxGeometry x="40" y="97" width="120" height="113" as="geometry"/>
                </mxCell>
                <mxCell id="73" value="" style="edgeStyle=none;html=1;fontSize=31;strokeWidth=5;" edge="1" parent="31" source="65" target="69">
                    <mxGeometry relative="1" as="geometry"/>
                </mxCell>
                <mxCell id="65" value="&lt;font style=&quot;font-size: 28px&quot;&gt;cli_&lt;br&gt;command&lt;/font&gt;" style="rounded=0;whiteSpace=wrap;html=1;fontSize=31;strokeWidth=5;" vertex="1" parent="31">
                    <mxGeometry x="240" y="100" width="140" height="110" as="geometry"/>
                </mxCell>
                <mxCell id="66" value="client" style="rounded=0;whiteSpace=wrap;html=1;fontSize=31;strokeWidth=5;" vertex="1" parent="31">
                    <mxGeometry x="430" y="100" width="140" height="110" as="geometry"/>
                </mxCell>
                <mxCell id="67" value="&lt;font style=&quot;font-size: 27px&quot;&gt;error_&lt;br&gt;decorator&lt;/font&gt;" style="rounded=0;whiteSpace=wrap;html=1;fontSize=31;strokeWidth=5;" vertex="1" parent="31">
                    <mxGeometry x="620" y="100" width="130" height="110" as="geometry"/>
                </mxCell>
                <mxCell id="68" value="local_&lt;br&gt;storage" style="rounded=0;whiteSpace=wrap;html=1;fontSize=31;strokeWidth=5;" vertex="1" parent="31">
                    <mxGeometry x="40" y="260" width="130" height="120" as="geometry"/>
                </mxCell>
                <mxCell id="69" value="parser" style="rounded=0;whiteSpace=wrap;html=1;fontSize=31;strokeWidth=5;" vertex="1" parent="31">
                    <mxGeometry x="240" y="260" width="140" height="120" as="geometry"/>
                </mxCell>
                <mxCell id="70" value="&lt;font style=&quot;font-size: 29px&quot;&gt;save_&lt;br&gt;decorator&lt;/font&gt;" style="rounded=0;whiteSpace=wrap;html=1;fontSize=31;strokeWidth=5;" vertex="1" parent="31">
                    <mxGeometry x="430" y="260" width="140" height="120" as="geometry"/>
                </mxCell>
                <mxCell id="71" value="service" style="rounded=0;whiteSpace=wrap;html=1;fontSize=31;strokeWidth=5;" vertex="1" parent="31">
                    <mxGeometry x="620" y="260" width="130" height="120" as="geometry"/>
                </mxCell>
                <mxCell id="72" value="status" style="rounded=0;whiteSpace=wrap;html=1;fontSize=31;strokeWidth=5;" vertex="1" parent="31">
                    <mxGeometry x="780" y="140" width="100" height="200" as="geometry"/>
                </mxCell>
                <mxCell id="35" value="&#10;main&#10;" style="swimlane;fontSize=40;strokeWidth=5;startSize=50;" vertex="1" parent="1">
                    <mxGeometry x="-490" y="1260" width="950" height="260" as="geometry"/>
                </mxCell>
                <mxCell id="39" value="" style="endArrow=classic;html=1;fontSize=40;strokeWidth=5;" edge="1" parent="1">
                    <mxGeometry width="50" height="50" relative="1" as="geometry">
                        <mxPoint x="-80" y="470" as="sourcePoint"/>
                        <mxPoint x="-10" y="1260" as="targetPoint"/>
                        <Array as="points">
                            <mxPoint x="-10" y="470"/>
                        </Array>
                    </mxGeometry>
                </mxCell>
                <mxCell id="40" value="" style="endArrow=none;html=1;fontSize=40;strokeWidth=5;" edge="1" parent="1">
                    <mxGeometry width="50" height="50" relative="1" as="geometry">
                        <mxPoint x="-90" y="960" as="sourcePoint"/>
                        <mxPoint x="-10" y="960" as="targetPoint"/>
                    </mxGeometry>
                </mxCell>
                <mxCell id="41" value="" style="endArrow=none;html=1;fontSize=40;strokeWidth=5;" edge="1" parent="1">
                    <mxGeometry width="50" height="50" relative="1" as="geometry">
                        <mxPoint x="80" y="960" as="sourcePoint"/>
                        <mxPoint x="-20" y="960" as="targetPoint"/>
                    </mxGeometry>
                </mxCell>
                <mxCell id="43" value="" style="endArrow=none;html=1;fontSize=40;strokeWidth=5;" edge="1" parent="1">
                    <mxGeometry width="50" height="50" relative="1" as="geometry">
                        <mxPoint x="-20" y="470" as="sourcePoint"/>
                        <mxPoint x="70" y="470" as="targetPoint"/>
                    </mxGeometry>
                </mxCell>
                <mxCell id="60" value="note&lt;span style=&quot;white-space: pre&quot;&gt;&#9;&lt;/span&gt;" style="rounded=0;whiteSpace=wrap;html=1;fontSize=31;strokeWidth=5;" vertex="1" parent="1">
                    <mxGeometry x="-850" y="840" width="290" height="120" as="geometry"/>
                </mxCell>
            </root>
        </mxGraphModel>
    </diagram>
</mxfile>